<?xml version="1.0" encoding="utf-8"?>
<!-- Generator: Adobe Illustrator 16.0.0, SVG Export Plug-In . SVG Version: 6.00 Build 0)  -->
<!DOCTYPE svg PUBLIC "-//W3C//DTD SVG 1.1//EN" "http://www.w3.org/Graphics/SVG/1.1/DTD/svg11.dtd">
<svg version="1.1" id="Layer_1" xmlns="http://www.w3.org/2000/svg" xmlns:xlink="http://www.w3.org/1999/xlink" x="0px" y="0px"
	 width="640px" height="480px" viewBox="0 0 640 480" enable-background="new 0 0 640 480" xml:space="preserve">
<g>
	<title>Layer 1</title>
	<g>
		<path fill="#ED6C69" stroke="#ED6C69" stroke-width="5.0613" stroke-miterlimit="1" d="M169.389,136.566
			c25.473-12.245,41.83-13.095,58.004,6.874c4.308,34.971,8.734,53.39,10.323,89.291c13.918-5.202,25.27-3.28,39.968-1.836
			c5.526,0.541-3.877-2.902,1.623-2.7c11.021,0.406,1.854,1.359,13.815-11.387c-0.073-25.206-1.169-51.408-0.964-76.669
			c0.12-14.417,12.224-17.377,23.761-16.786c9.061,0.465,16.607,4.246,25.571,6.22c11.298,2.491,23.44,12.137,34.28,13.248
			c30.252,3.086,24.531-74.86,20.387-98.501c-3.33-19-14.482-29.488-28.398-26.537c-13.755,2.917-22.597,24.303-35.158,26.451
			c-12.798,2.189-27.42-23.076-40.685-25.784c-31.131-6.353-68.125,0.84-97.15,15.449c-46.594,23.453-56.779,76.414-66.555,138.803
			L169.389,136.566z"/>
	</g>
	<rect id="svg_1" x="220" y="152" fill="#0CAAE2" stroke="#0CAAE2" stroke-width="5.0613" width="79" height="302"/>
</g>
</svg>
